<svg width="22" height="20" viewBox="0 0 22 20" fill="none" xmlns="http://www.w3.org/2000/svg">
<path d="M5 18H17V8.157L11 2.703L5 8.157V18ZM18 20H4C3.73478 20 3.48043 19.8946 3.29289 19.7071C3.10536 19.5196 3 19.2652 3 19V10H0L10.327 0.611996C10.5111 0.444474 10.7511 0.351639 11 0.351639C11.2489 0.351639 11.4889 0.444474 11.673 0.611996L22 10H19V19C19 19.2652 18.8946 19.5196 18.7071 19.7071C18.5196 19.8946 18.2652 20 18 20ZM6.5 12H8.5C8.5 12.663 8.76339 13.2989 9.23223 13.7678C9.70107 14.2366 10.337 14.5 11 14.5C11.663 14.5 12.2989 14.2366 12.7678 13.7678C13.2366 13.2989 13.5 12.663 13.5 12H15.5C15.5 13.1935 15.0259 14.3381 14.182 15.182C13.3381 16.0259 12.1935 16.5 11 16.5C9.80653 16.5 8.66193 16.0259 7.81802 15.182C6.97411 14.3381 6.5 13.1935 6.5 12Z" fill="black"/>
</svg>
